<?xml version="1.0" standalone="no"?>
<!DOCTYPE svg PUBLIC "-//W3C//DTD SVG 20010904//EN"
 "http://www.w3.org/TR/2001/REC-SVG-20010904/DTD/svg10.dtd">
<svg version="1.0" xmlns="http://www.w3.org/2000/svg"
 width="512.000000pt" height="512.000000pt" viewBox="0 0 512.000000 512.000000"
 preserveAspectRatio="xMidYMid meet">
<metadata>
Created by potrace 1.14, written by Peter Selinger 2001-2017
</metadata>
<g transform="translate(0.000000,512.000000) scale(0.100000,-0.100000)"
fill="#000000" stroke="none">
<path d="M0 2560 l0 -2560 2560 0 2560 0 0 2560 0 2560 -2560 0 -2560 0 0
-2560z m1740 1619 c86 -13 131 -35 422 -202 l247 -142 1 -418 0 -417 -50 25
c-311 158 -697 -46 -752 -397 -60 -388 328 -708 697 -574 176 64 312 221 344
400 7 38 11 270 11 644 0 495 2 583 14 579 22 -9 1156 -665 1211 -702 158
-104 244 -272 232 -455 -9 -127 -79 -269 -171 -345 -65 -53 -2074 -1213 -2131
-1231 -259 -79 -523 53 -623 312 l-27 69 -3 1185 c-2 820 0 1205 8 1248 16 91
44 159 94 225 75 101 176 165 299 192 78 17 97 17 177 4z m486 -1366 c102 -35
184 -151 184 -263 0 -151 -129 -280 -280 -280 -151 0 -280 129 -280 280 0 75
27 139 85 196 80 80 183 104 291 67z"/>
</g>
</svg>
